<svg xmlns="http://www.w3.org/2000/svg" viewBox="0 0 1200 500">
<defs>
<linearGradient id="ysky" x1="0" y1="0" x2="0" y2="1">
<stop offset="0" stop-color="#0e1013"/><stop offset="1" stop-color="#10302d"/>
</linearGradient>
</defs>
<rect width="1200" height="500" fill="url(#ysky)"/>
<circle cx="980" cy="110" r="55" fill="#e9f7f5" opacity=".9"/>
<g fill="#171a1f">
<rect x="40" y="220" width="70" height="280"/><rect x="130" y="160" width="58" height="340"/><rect x="208" y="260" width="64" height="240"/><rect x="292" y="120" width="76" height="380"/><rect x="388" y="230" width="54" height="270"/><rect x="460" y="80" width="44" height="420"/><polygon points="482,20 460,80 504,80"/><rect x="524" y="200" width="68" height="300"/><rect x="612" y="150" width="58" height="350"/><rect x="690" y="250" width="62" height="250"/><rect x="772" y="100" width="50" height="400"/><rect x="842" y="220" width="66" height="280"/><rect x="928" y="180" width="56" height="320"/><rect x="1004" y="260" width="60" height="240"/><rect x="1084" y="170" width="70" height="330"/>
</g>
<g fill="#ff5c1f" opacity=".9">
<rect x="56" y="240" width="8" height="8"/><rect x="78" y="280" width="8" height="8"/><rect x="146" y="190" width="8" height="8"/><rect x="160" y="240" width="8" height="8"/><rect x="310" y="150" width="8" height="8"/><rect x="336" y="210" width="8" height="8"/><rect x="472" y="110" width="8" height="8"/><rect x="540" y="230" width="8" height="8"/><rect x="630" y="180" width="8" height="8"/><rect x="700" y="280" width="8" height="8"/><rect x="786" y="140" width="8" height="8"/><rect x="858" y="250" width="8" height="8"/><rect x="944" y="210" width="8" height="8"/><rect x="1100" y="200" width="8" height="8"/>
</g>
<g fill="#0e9d8e" opacity=".85">
<rect x="60" y="320" width="8" height="8"/><rect x="148" y="300" width="8" height="8"/><rect x="226" y="290" width="8" height="8"/><rect x="316" y="260" width="8" height="8"/><rect x="404" y="270" width="8" height="8"/><rect x="476" y="180" width="8" height="8"/><rect x="556" y="290" width="8" height="8"/><rect x="644" y="240" width="8" height="8"/><rect x="790" y="220" width="8" height="8"/><rect x="874" y="300" width="8" height="8"/><rect x="1022" y="300" width="8" height="8"/><rect x="1108" y="260" width="8" height="8"/>
</g>
<rect x="0" y="486" width="1200" height="14" fill="#ff5c1f"/>
</svg>
