<svg xmlns="http://www.w3.org/2000/svg" viewBox="0 0 1200 500">
<rect width="1200" height="500" fill="#0e1013"/>
<g opacity=".15" stroke="#697080" stroke-width="1">
<path d="M0 100 H1200 M0 200 H1200 M0 300 H1200 M0 400 H1200 M150 0 V500 M350 0 V500 M550 0 V500 M750 0 V500 M950 0 V500"/>
</g>
<path d="M150 370 C320 360 300 160 520 180 C720 198 700 330 900 300 C1000 285 1040 220 1060 150" stroke="#ff5c1f" stroke-width="5" stroke-dasharray="14 12" fill="none"/>
<circle cx="150" cy="370" r="34" fill="#0e9d8e" opacity=".18"/>
<circle cx="150" cy="370" r="22" fill="#0e9d8e"/>
<path d="M139 372 l9 -3 7 -10 3 2 -4 9 9 -2 3 -5 4 1 -3 8 3 8 -4 1 -3 -5 -9 -2 4 9 -3 2 -7 -10 -9 -3 z" fill="#fff"/>
<circle cx="1060" cy="150" r="34" fill="#ff5c1f" opacity=".18"/>
<circle cx="1060" cy="150" r="22" fill="#ff5c1f"/>
<path d="M1048 156 c2 -7 6 -10 14 -11 l8 1 c4 1 6 3 7 6 l1 4 -2 3 -4 1 c-1 3 -3 4 -5 4 -2 0 -4 -1 -5 -3 l-8 0 c-1 2 -3 3 -5 3 -2 0 -4 -1 -5 -4 l-3 -1 z" fill="#fff" transform="translate(0,-3)"/>
<g fill="#e9f7f5">
<circle cx="520" cy="180" r="8"/><circle cx="900" cy="300" r="8"/>
</g>
<g font-family="Arial,Helvetica,sans-serif" font-weight="700" letter-spacing="3">
<text x="190" y="412" fill="#0e9d8e" font-size="15">WHEELS UP</text>
<text x="930" y="125" fill="#ff6c35" font-size="15">MEETING READY</text>
</g>
</svg>
