<svg xmlns="http://www.w3.org/2000/svg" viewBox="0 0 1200 500">
<rect width="1200" height="500" fill="#0e1013"/>
<g fill="#171a1f"><rect x="60" y="260" width="80" height="240"/><rect x="170" y="200" width="66" height="300"/><rect x="950" y="220" width="74" height="280"/><rect x="1060" y="270" width="66" height="230"/><polygon points="560,500 660,500 645,180 575,180"/><rect x="370" y="240" width="120" height="260" transform="skewX(-6)"/><rect x="740" y="240" width="120" height="260" transform="skewX(6)"/></g>
<circle cx="610" cy="120" r="36" fill="none" stroke="#ff5c1f" stroke-width="6"/>
<line x1="610" y1="156" x2="610" y2="180" stroke="#ff5c1f" stroke-width="6"/>
<g stroke="#0e9d8e" stroke-width="3" opacity=".9"><line x1="378" y1="270" x2="468" y2="270"/><line x1="376" y1="300" x2="466" y2="300"/><line x1="374" y1="330" x2="464" y2="330"/><line x1="748" y1="270" x2="838" y2="270"/><line x1="750" y1="300" x2="840" y2="300"/><line x1="752" y1="330" x2="842" y2="330"/></g>
<g fill="#ff5c1f" opacity=".9"><rect x="80" y="290" width="10" height="10"/><rect x="110" y="330" width="10" height="10"/><rect x="186" y="230" width="10" height="10"/><rect x="970" y="250" width="10" height="10"/><rect x="1080" y="300" width="10" height="10"/><rect x="590" y="220" width="10" height="10"/><rect x="615" y="260" width="10" height="10"/></g>
<rect x="0" y="470" width="1200" height="30" fill="#1c1f24"/>
<g stroke="#e3c98a" stroke-width="0"><circle cx="200" cy="60" r="2" fill="#e9f7f5"/><circle cx="420" cy="40" r="2" fill="#e9f7f5"/><circle cx="800" cy="55" r="2" fill="#e9f7f5"/><circle cx="1000" cy="80" r="2" fill="#e9f7f5"/></g>
</svg>
