<svg xmlns="http://www.w3.org/2000/svg" viewBox="0 0 1200 500">
<defs>
<linearGradient id="nsky" x1="0" y1="0" x2="0" y2="1">
<stop offset="0" stop-color="#fff3ec"/><stop offset="1" stop-color="#ffd9c6"/>
</linearGradient>
</defs>
<rect width="1200" height="500" fill="url(#nsky)"/>
<circle cx="920" cy="150" r="70" fill="#ff5c1f" opacity=".85"/>
<path d="M0 260 Q300 170 620 250 T1200 235 V500 H0 Z" fill="#0e9d8e" opacity=".35"/>
<path d="M0 320 Q350 220 700 300 T1200 290 V500 H0 Z" fill="#0e9d8e" opacity=".6"/>
<path d="M0 390 Q400 290 800 370 T1200 355 V500 H0 Z" fill="#0b7d72"/>
<g stroke="#e9f7f5" stroke-width="5" fill="none" opacity=".7">
<path d="M80 500 Q90 440 110 400"/><path d="M230 500 Q240 445 260 405"/><path d="M390 500 Q398 450 415 412"/><path d="M560 500 Q566 452 580 418"/><path d="M730 500 Q734 455 746 420"/><path d="M900 500 Q903 458 913 425"/><path d="M1070 500 Q1072 460 1080 430"/>
</g>
<g fill="#0e1013" opacity=".9">
<rect x="150" y="330" width="6" height="40"/><circle cx="153" cy="322" r="16"/>
<rect x="1010" y="305" width="6" height="40"/><circle cx="1013" cy="297" r="16"/>
</g>
</svg>
