<svg xmlns="http://www.w3.org/2000/svg" viewBox="0 0 1200 500">
<defs>
<linearGradient id="sky" x1="0" y1="0" x2="0" y2="1">
<stop offset="0" stop-color="#0e1013"/><stop offset=".55" stop-color="#3a2117"/><stop offset="1" stop-color="#ff5c1f" stop-opacity=".55"/>
</linearGradient>
</defs>
<rect width="1200" height="500" fill="url(#sky)"/>
<circle cx="850" cy="330" r="90" fill="#ff5c1f" opacity=".9"/>
<g fill="#0e1013">
<rect x="60" y="250" width="46" height="160"/><rect x="120" y="200" width="56" height="210"/><rect x="190" y="280" width="40" height="130"/><rect x="244" y="160" width="62" height="250"/><rect x="320" y="240" width="44" height="170"/><rect x="378" y="120" width="30" height="290"/><polygon points="393,60 378,120 408,120"/><rect x="424" y="220" width="58" height="190"/><rect x="496" y="265" width="44" height="145"/><rect x="556" y="185" width="52" height="225"/><rect x="624" y="245" width="40" height="165"/><rect x="680" y="290" width="50" height="120"/>
</g>
<g opacity=".85">
<rect x="60" y="410" width="1140" height="90" fill="#0a2e2a"/>
<rect x="0" y="410" width="1200" height="90" fill="#0b3a34"/>
</g>
<g stroke="#ff6c35" stroke-width="10" fill="none">
<path d="M780 410 L780 270 M1080 410 L1080 270"/>
<path d="M680 410 Q780 290 930 282 Q1080 290 1180 410" stroke-width="7"/>
</g>
<g stroke="#ff6c35" stroke-width="3">
<line x1="805" y1="300" x2="805" y2="410"/><line x1="855" y1="288" x2="855" y2="410"/><line x1="905" y1="283" x2="905" y2="410"/><line x1="955" y1="283" x2="955" y2="410"/><line x1="1005" y1="288" x2="1005" y2="410"/><line x1="1055" y1="298" x2="1055" y2="410"/>
</g>
<rect x="680" y="398" width="520" height="14" fill="#ff5c1f"/>
<g fill="#e9f7f5" opacity=".8">
<circle cx="140" cy="80" r="2.4"/><circle cx="300" cy="50" r="2"/><circle cx="520" cy="90" r="2.4"/><circle cx="660" cy="40" r="2"/><circle cx="1050" cy="70" r="2.4"/><circle cx="1150" cy="130" r="2"/>
</g>
</svg>
